SPORT: Rugby Highlights - Aviva Premiership
On: itv1 hd
Date: Sunday 24th February 2013 
Time: 23:15 to 00:15 

Craig Doyle and Martin Bayfield present the highlights from the weekend's round 16 games, including Sale taking on Harlequins and Leicester's home match with Saracens.


General
Complete name                            : 2013.02.24.Rugby.Union.Aviva.Highlights.pdtv.x264.mp4
Format                                   : MPEG-4
Format profile                           : Base Media
Codec ID                                 : isom
File size                                : 418 MiB
Duration                                 : 45mn 20s
Overall bit rate mode                    : Variable
Overall bit rate                         : 1 288 Kbps

Video
ID                                       : 1
Format                                   : AVC
Format/Info                              : Advanced Video Codec
Format profile                           : High@L3.1
Format settings, CABAC                   : Yes
Format settings, ReFrames                : 15 frames
Codec ID                                 : avc1
Codec ID/Info                            : Advanced Video Coding
Duration                                 : 45mn 20s
Bit rate                                 : 1 160 Kbps
Maximum bit rate                         : 3 835 Kbps
Width                                    : 720 pixels
Height                                   : 416 pixels
Display aspect ratio                     : 1.731
Frame rate mode                          : Constant
Frame rate                               : 25.000 fps
Color space                              : YUV
Chroma subsampling                       : 4:2:0
Bit depth                                : 8 bits
Scan type                                : Progressive
Bits/(Pixel*Frame)                       : 0.155
Stream size                              : 376 MiB (90%)
Writing library                          : x264 core 129 r2245 bc13772

Audio
ID                                       : 2
Format                                   : AAC
Format/Info                              : Advanced Audio Codec
Format profile                           : LC
Codec ID                                 : 40
Duration                                 : 45mn 20s
Bit rate mode                            : Variable
Bit rate                                 : 124 Kbps
Maximum bit rate                         : 129 Kbps
Channel(s)                               : 2 channels
Channel positions                        : Front: L R
Sampling rate                            : 48.0 KHz
Compression mode                         : Lossy
Delay relative to video                  : 80ms
Stream size                              : 40.2 MiB (10%)
Language                                 : English